. 
  
http://www.torrentday.com/        :     The Hottest Private Tracker On The Net!!!


               www . TorrentDay . Com 
(((((((((((((= Enjoy No RAR releases =))))))))))))))))))))


...................................NFO:....................................

.[pre]  
    *********** ****    ****      ***      ******** *********** ****    *** **********
           *+*     +*+*+* *+*+*+   *+* *+*   *+*    *+*    *+*     *+*+*   *+* *+*        
           +*+     +*+ +*+*+ +*+  +*+   +*+  +*+           +*+     *+*+*+  +*+ +*+        
           +$+     +$+  +*+  +$+ +$++*++$++* *$*           +$+     +$+ +*+ +$+ +$++*++$  
           +$+     +$+       +$+ +$+     +$+ +$+   +$+$    +$+     +$+  +$+$+$ +$+        
           $+$     $+$       $+$ $+$     $+$ $+$    $+$    $+$     $+$   $+$+$ $+$        
       $$$$$$$$$$$ $$$       $$$ $$$     $$$  $$$$$$$$ $$$$$$$$$$$ $$$    $$$$ $$$$$$$$$$     
                                                



                           Another Fine Release Brought to you from - IMAGiNE                   
                                                 

********************************************************************************************************************                                
                          Gullivers Travel TS READNFO XViD V2 - IMAGiNE
********************************************************************************************************************

Ripper ...........: IMAGiNE                                        IMDB Rating.......:4.6/10                             
Video Codec.......: XVID                                         Release Date......:04/01/10
Audio Codec.......:MP3                                           Theatre Date......:26/12/10
Audio Bitrate.....:128                                              Runtime.......:1h 21mn
Subtitles.........:NIL                                                 Language..........:ENGLISH
Resolution...... 704 x 352                                      IMDb URL..........:http://www.imdb.com/title/tt1320261/


[color=yellow]DETAILS:[/color]

Video
ID                               : 0
Format                           : MPEG-4 Visual
Format profile                   : Advanced Simple@L5
Format settings, BVOP            : Yes
Format settings, QPel            : No
Format settings, GMC             : No warppoints
Format settings, Matrix          : Default (MPEG)
Muxing mode                      : Packed bitstream
Codec ID                         : XVID
Codec ID/Hint                    : XviD
Duration                         : 1h 21mn
Bit rate                         : 2 328 Kbps
Width                            : 704 pixels
Height                           : 352 pixels
Display aspect ratio             : 2.000
Frame rate                       : 50.000 fps
Resolution                       : 24 bits
Colorimetry                      : 4:2:0
Scan type                        : Progressive
Bits/(Pixel*Frame)               : 0.188
Stream size                      : 1.33 GiB (94%)
Writing library                  : XviD 1.2.1 (UTC 2008-12-04)

Audio
ID                               : 1
Format                           : MPEG Audio
Format version                   : Version 1
Format profile                   : Layer 3
Codec ID                         : 55
Codec ID/Hint                    : MP3
Duration                         : 1h 21mn
Bit rate mode                    : Constant
Bit rate                         : 128 Kbps
Channel(s)                       : 2 channels
Sampling rate                    : 44.1 KHz
Resolution                       : 16 bits
Stream size                      : 74.8 MiB (5%)
Alignment                        : Split accross interleaves
Interleave, duration             : 20 ms (1.00 video frame)
Interleave, preload duration     : 500 ms



[color=yellow]SOURCES:[/color]

VIDEO:Homemade ............... Thanks nos1
AUDIO:OWN

[color=yellow]NOTES:[/color]

IMAGiNE bringing you another release..........Gullivers Travels 2010

Ok to clear up the readnfo part......we used this tag because we had to add 3mins 23secs of video 
off our cam release due to focus issues on this video.
Right,this time round we have good line audio and also a new video source :) 
Now the video is cropped around the bottom and sides but not quite as much as the other cam video.Also 
this one has alot better picture Q then the one before.
Audio....brand new line and pretty decent.We just had to sync it to our encode.

Overall not too bad for a TS,some auto focus issues here and there but still watchabe.
Enjoy folks


[color=yellow]SCREENS:[/color]



[color=yellow]GREETS:[/color]

FLAWL3SS,ViSiON,FUSiON,Rx,SecretMyth,BirdFlu,ELEKTRI4KA,Serenity
And to all the other p2p grps past and present 

[COLOR=RED]Looking for these,syncers,cammers,silver supplier.....Have anything to offer????......
Contact us imaginegroup@hushmail.com[/COLOR][/pre]